<svg xmlns="http://www.w3.org/2000/svg" xmlns:xlink="http://www.w3.org/1999/xlink" version="1.1" x="0px" y="0px" viewBox="-5.0 -10.0 110.0 135.0" enable-background="new 0 0 100 100" xml:space="preserve"><g><path d="M49.97,71.963c0.188,0,0.34-0.152,0.34-0.34v-7.992c0-0.188-0.152-0.34-0.34-0.34c-0.188,0-0.34,0.152-0.34,0.34v7.992   C49.63,71.811,49.782,71.963,49.97,71.963z"/><path d="M67.217,81.307c0.187,0,0.34-0.153,0.34-0.34v-7.992c0-0.188-0.152-0.34-0.34-0.34c-0.188,0-0.34,0.152-0.34,0.34v7.992   C66.877,81.155,67.029,81.307,67.217,81.307z"/><path d="M83.896,63.028c-0.019-0.018-0.031-0.041-0.054-0.054l-14.716-8.476c-0.069-0.04-0.146-0.044-0.222-0.031   c-0.03-0.008-0.06,0.01-0.091,0.01c-0.044,0-0.081-0.002-0.122,0.015c-0.016,0.006-0.032-0.002-0.047,0.006l-1.879,1.073v-1.646   c0-0.005-0.004-0.01-0.004-0.015c-0.005-0.116-0.066-0.222-0.166-0.281l-2.886-1.662l2.759-1.576c0,0,0,0,0,0   c0.001,0,0.002,0,0.003-0.001c0.071-0.041,0.113-0.109,0.139-0.183c0.006-0.018,0.01-0.031,0.013-0.05   c0.004-0.021,0.016-0.039,0.016-0.061v-16.94c0-0.096-0.049-0.177-0.117-0.241c-0.019-0.018-0.031-0.041-0.054-0.054l-14.716-8.476   c-0.069-0.04-0.146-0.044-0.222-0.031c-0.03-0.008-0.06,0.01-0.091,0.01c-0.044,0-0.081-0.002-0.122,0.015   c-0.016,0.006-0.032-0.002-0.047,0.006l-1.879,1.073v-1.646c0-0.005-0.004-0.01-0.004-0.015c-0.005-0.116-0.066-0.222-0.166-0.281   l-14.715-8.475c-0.07-0.039-0.147-0.043-0.223-0.031c-0.029-0.008-0.06,0.01-0.091,0.01c-0.044,0-0.081-0.002-0.122,0.015   c-0.016,0.006-0.033-0.003-0.048,0.006l-14.345,8.196l-0.084,0.047c-0.001,0-0.001,0.001-0.002,0.002c0,0-0.001,0-0.001,0   c-0.029,0.017-0.047,0.046-0.07,0.07c-0.017,0.019-0.041,0.032-0.053,0.054c-0.01,0.017-0.011,0.037-0.015,0.056   c-0.007,0.02-0.012,0.035-0.015,0.056c0,0.003-0.002,0.006-0.002,0.008c-0.003,0.017-0.013,0.031-0.013,0.048c0,0,0,0,0,0s0,0,0,0   v16.94c0,0.122,0.065,0.234,0.171,0.295l14.86,8.475c0.051,0.03,0.11,0.046,0.169,0.046c0.058,0,0.115-0.014,0.169-0.045   l0.001-0.001c0,0,0,0,0,0s0,0,0,0l1.877-1.072v1.646c0,0.122,0.066,0.234,0.172,0.295l2.9,1.654l-2.69,1.537l-0.084,0.047   c-0.001,0-0.001,0.001-0.002,0.002c0,0-0.001,0-0.001,0c-0.029,0.017-0.047,0.046-0.07,0.07c-0.017,0.019-0.041,0.032-0.053,0.054   c-0.01,0.017-0.011,0.037-0.015,0.056c-0.007,0.02-0.012,0.035-0.015,0.056c0,0.003-0.002,0.006-0.002,0.008   c-0.003,0.017-0.013,0.031-0.013,0.048c0,0,0,0,0,0s0,0,0,0v16.94c0,0.122,0.065,0.234,0.171,0.295l14.86,8.475   c0.051,0.03,0.11,0.046,0.169,0.046c0.058,0,0.115-0.014,0.169-0.045l0.001-0.001c0,0,0,0,0,0s0,0,0,0l1.877-1.072v1.646   c0,0.122,0.066,0.234,0.172,0.295l14.859,8.474c0.051,0.03,0.11,0.046,0.169,0.046c0.058,0,0.115-0.015,0.169-0.045l0.002-0.001   c0,0,0,0,0,0s0,0,0,0l14.428-8.242c0,0,0,0,0,0c0.001,0,0.002,0,0.003-0.001c0.071-0.041,0.113-0.109,0.139-0.183   c0.006-0.018,0.01-0.031,0.013-0.05c0.004-0.021,0.016-0.039,0.016-0.061v-16.94C84.013,63.174,83.964,63.092,83.896,63.028z    M51.509,25.111l14.103,8.044l-13.744,7.852l-14.172-8.082L51.509,25.111z M34.281,48.412L20.1,40.324V24.166l14.181,8.087V48.412z    M34.62,31.663l-14.172-8.082l13.813-7.813l14.103,8.043L34.62,31.663z M37.348,33.509l5.361,3.057l8.82,5.03v16.157l-14.181-8.087   V33.509z M51.655,78.525l-14.181-8.088V54.279l14.181,8.087V78.525z M51.994,61.776l-14.172-8.082l2.619-1.481l11.258,6.421   c0.051,0.03,0.11,0.046,0.169,0.046c0.058,0,0.115-0.015,0.169-0.045l0.002-0.001c0,0,0,0,0,0s0,0,0,0l10.969-6.266l2.73,1.557   L51.994,61.776z M68.903,87.867L54.722,79.78V63.622l5.361,3.057l8.82,5.03V87.867z M69.242,71.12L55.07,63.038l13.813-7.814   l14.103,8.044L69.242,71.12z"/><path d="M32.596,41.85c0.188,0,0.34-0.152,0.34-0.34v-7.992c0-0.188-0.152-0.34-0.34-0.34c-0.188,0-0.34,0.152-0.34,0.34v7.992   C32.256,41.698,32.408,41.85,32.596,41.85z"/><path d="M49.843,42.522c-0.188,0-0.34,0.152-0.34,0.34v7.992c0,0.188,0.152,0.34,0.34,0.34c0.187,0,0.34-0.153,0.34-0.34v-7.992   C50.183,42.674,50.031,42.522,49.843,42.522z"/></g><text x="0.0" y="117.5" font-size="5.0" font-weight="bold" font-family="Arbeit Regular, Helvetica, Arial-Unicode, Arial, Sans-serif" fill="#000000">Created by DANILO GUSMAO SILVEIRA</text><text x="0.0" y="122.5" font-size="5.0" font-weight="bold" font-family="Arbeit Regular, Helvetica, Arial-Unicode, Arial, Sans-serif" fill="#000000">from Noun Project</text></svg>